# xmcd CD database file
#
# Track frame offsets:
#	150
#	41932
#	61717
#	90032
#	108400
#	125500
#	162347
#	193855
#	231452
#	266160
#	293452
#
# Disc length: 4638 seconds
#
# Revision: 1
# Processed by: cddbd v1.5.2PL0 Copyright (c) Steve Scherf et al.
# Submitted via: CDex 1.70beta2
#
DISCID=97121c0b
DTITLE=Roy Buchanan - Sweet Dreams: The Anthology disc 2
DYEAR=1992
DGENRE=Blues
TTITLE0=Down By The River(Live)
TTITLE1=I'm A Ram(Live)
TTITLE2=I'm Evil(Live)
TTITLE3=Good God Have Mercy
TTITLE4=If Six Were Nine
TTITLE5=Green Onions
TTITLE6=Soul Dressing(Live)
TTITLE7=Hey Joe(Live)
TTITLE8=Fly...Night Bird
TTITLE9=Turn To Stone
TTITLE10=Dual Soliloquy
EXTD=Disc 2 YEAR: 1992
EXTT0=
EXTT1=
EXTT2=
EXTT3=
EXTT4=
EXTT5=
EXTT6=
EXTT7=
EXTT8=
EXTT9=
EXTT10=
PLAYORDER=
